<!DOCTYPE svg PUBLIC "-//W3C//DTD SVG 1.1//EN" "http://www.w3.org/Graphics/SVG/1.1/DTD/svg11.dtd">
<!-- Uploaded to: SVG Repo, www.svgrepo.com, Transformed by: SVG Repo Mixer Tools -->
<svg fill="#2A7AE4" height="64px" width="64px" version="1.1" id="Capa_1" xmlns="http://www.w3.org/2000/svg" xmlns:xlink="http://www.w3.org/1999/xlink" viewBox="0 0 511 511" xml:space="preserve" stroke="#2A7AE4">
<g id="SVGRepo_bgCarrier" stroke-width="0"/>
<g id="SVGRepo_tracerCarrier" stroke-linecap="round" stroke-linejoin="round"/>
<g id="SVGRepo_iconCarrier"> <g> <path d="M470.962,102.751c-0.018-0.182-0.049-0.359-0.08-0.537c-0.011-0.063-0.017-0.128-0.029-0.191 c-0.042-0.21-0.096-0.416-0.155-0.619c-0.009-0.03-0.014-0.061-0.023-0.091c-0.063-0.207-0.138-0.409-0.218-0.608 c-0.011-0.027-0.019-0.055-0.03-0.081c-0.078-0.189-0.168-0.372-0.261-0.552c-0.019-0.037-0.034-0.075-0.054-0.112 c-0.089-0.167-0.189-0.327-0.291-0.486c-0.03-0.048-0.057-0.098-0.088-0.145c-0.101-0.151-0.213-0.295-0.324-0.438 c-0.039-0.05-0.073-0.102-0.113-0.151c-0.156-0.189-0.32-0.372-0.493-0.545L372.805,2.198c-0.173-0.173-0.355-0.338-0.545-0.493 c-0.049-0.04-0.102-0.074-0.151-0.113c-0.143-0.112-0.287-0.223-0.438-0.324c-0.047-0.032-0.097-0.058-0.145-0.088 c-0.159-0.101-0.319-0.201-0.486-0.291c-0.036-0.02-0.075-0.035-0.112-0.054c-0.181-0.093-0.364-0.183-0.552-0.261 c-0.027-0.011-0.055-0.019-0.081-0.03c-0.199-0.08-0.401-0.155-0.608-0.218c-0.03-0.009-0.061-0.015-0.091-0.023 c-0.203-0.059-0.409-0.114-0.619-0.156c-0.063-0.013-0.128-0.018-0.191-0.029c-0.178-0.031-0.355-0.062-0.537-0.08 C368.001,0.013,367.751,0,367.5,0h-224C121.72,0,104,17.72,104,39.5V80H71.5C54.131,80,40,94.131,40,111.5v80 c0,17.369,14.131,31.5,31.5,31.5H104v248.5c0,21.78,17.72,39.5,39.5,39.5h288c21.78,0,39.5-17.72,39.5-39.5v-368 C471,103.249,470.987,102.999,470.962,102.751z M375,25.606L445.394,96H399.5C385.991,96,375,85.009,375,71.5V25.606z M55,191.5 v-80c0-9.098,7.402-16.5,16.5-16.5h232c9.098,0,16.5,7.402,16.5,16.5v80c0,9.098-7.402,16.5-16.5,16.5H111.519 c-0.006,0-0.013-0.001-0.019-0.001S111.487,208,111.481,208H71.5C62.402,208,55,200.598,55,191.5z M431.5,496h-288 c-13.509,0-24.5-10.991-24.5-24.5V223h184.5c17.369,0,31.5-14.131,31.5-31.5v-80c0-17.369-14.131-31.5-31.5-31.5H119V39.5 c0-13.509,10.991-24.5,24.5-24.5H360v56.5c0,21.78,17.72,39.5,39.5,39.5H456v360.5C456,485.009,445.009,496,431.5,496z"/> <path d="M223,319.5c0-4.687,3.813-8.5,8.5-8.5h8c4.142,0,7.5-3.358,7.5-7.5s-3.358-7.5-7.5-7.5h-8c-12.958,0-23.5,10.542-23.5,23.5 v24c0,4.687-3.813,8.5-8.5,8.5c-4.142,0-7.5,3.358-7.5,7.5s3.358,7.5,7.5,7.5c4.687,0,8.5,3.813,8.5,8.5v24 c0,12.958,10.542,23.5,23.5,23.5h8c4.142,0,7.5-3.358,7.5-7.5s-3.358-7.5-7.5-7.5h-8c-4.687,0-8.5-3.813-8.5-8.5v-24 c0-6.175-2.394-11.802-6.303-16c3.909-4.198,6.303-9.825,6.303-16V319.5z"/> <path d="M375.5,352c-4.687,0-8.5-3.813-8.5-8.5v-24c0-12.958-10.542-23.5-23.5-23.5h-8c-4.142,0-7.5,3.358-7.5,7.5 s3.358,7.5,7.5,7.5h8c4.687,0,8.5,3.813,8.5,8.5v24c0,6.175,2.394,11.802,6.303,16c-3.909,4.198-6.303,9.825-6.303,16v24 c0,4.687-3.813,8.5-8.5,8.5h-8c-4.142,0-7.5,3.358-7.5,7.5s3.358,7.5,7.5,7.5h8c12.958,0,23.5-10.542,23.5-23.5v-24 c0-4.687,3.813-8.5,8.5-8.5c4.142,0,7.5-3.358,7.5-7.5S379.642,352,375.5,352z"/> <path d="M255.503,384c-1.98,0-3.91,0.8-5.31,2.2c-1.39,1.39-2.19,3.33-2.19,5.3c0,1.98,0.8,3.91,2.19,5.3 c1.4,1.4,3.33,2.2,5.31,2.2c1.97,0,3.9-0.8,5.3-2.2c1.4-1.39,2.2-3.32,2.2-5.3c0-1.97-0.8-3.91-2.2-5.3 C259.403,384.8,257.473,384,255.503,384z"/> <path d="M287.503,384c-1.98,0-3.91,0.8-5.31,2.2c-1.39,1.39-2.19,3.33-2.19,5.3c0,1.97,0.8,3.91,2.19,5.3 c1.4,1.4,3.33,2.2,5.31,2.2c1.97,0,3.9-0.8,5.3-2.2c1.4-1.39,2.2-3.32,2.2-5.3s-0.8-3.91-2.2-5.3 C291.403,384.8,289.473,384,287.503,384z"/> <path d="M319.503,384c-1.98,0-3.91,0.8-5.31,2.2c-1.39,1.39-2.19,3.33-2.19,5.3c0,1.98,0.8,3.91,2.19,5.3 c1.4,1.4,3.33,2.2,5.31,2.2c1.97,0,3.9-0.8,5.3-2.2c1.4-1.39,2.2-3.32,2.2-5.3c0-1.97-0.8-3.91-2.2-5.3 C323.403,384.8,321.473,384,319.503,384z"/> <path d="M199.5,176h-40c-4.142,0-7.5,3.358-7.5,7.5s3.358,7.5,7.5,7.5h40c12.958,0,23.5-10.542,23.5-23.5S212.458,144,199.5,144 h-24c-4.687,0-8.5-3.813-8.5-8.5s3.813-8.5,8.5-8.5h32c4.142,0,7.5-3.358,7.5-7.5s-3.358-7.5-7.5-7.5h-32 c-12.958,0-23.5,10.542-23.5,23.5s10.542,23.5,23.5,23.5h24c4.687,0,8.5,3.813,8.5,8.5S204.187,176,199.5,176z"/> <path d="M279.5,176h-40c-4.142,0-7.5,3.358-7.5,7.5s3.358,7.5,7.5,7.5h40c12.958,0,23.5-10.542,23.5-23.5S292.458,144,279.5,144 h-24c-4.687,0-8.5-3.813-8.5-8.5s3.813-8.5,8.5-8.5h32c4.142,0,7.5-3.358,7.5-7.5s-3.358-7.5-7.5-7.5h-32 c-12.958,0-23.5,10.542-23.5,23.5s10.542,23.5,23.5,23.5h24c4.687,0,8.5,3.813,8.5,8.5S284.187,176,279.5,176z"/> <path d="M111.5,191c8.835,0,17.344-3.82,23.344-10.48c2.772-3.078,2.525-7.82-0.552-10.592c-3.078-2.771-7.819-2.525-10.592,0.552 c-3.207,3.56-7.539,5.52-12.199,5.52h-8c-9.098,0-16.5-7.402-16.5-16.5v-16c0-9.098,7.402-16.5,16.5-16.5h8 c4.66,0,8.993,1.96,12.199,5.52c2.772,3.078,7.514,3.325,10.592,0.552c3.078-2.772,3.325-7.515,0.552-10.592 c-6-6.66-14.508-10.48-23.344-10.48h-8C86.131,112,72,126.131,72,143.5v16c0,17.369,14.131,31.5,31.5,31.5H111.5z"/> </g> </g>
</svg>