<?xml version="1.0" standalone="yes"?>
<svg xmlns="http://www.w3.org/2000/svg" width="148" height="148">
<path style="fill:#010101; stroke:none;" d="M0 0L0 148L148 148L148 0L0 0z"/>
<path style="fill:#313030; stroke:none;" d="M18 10C21.9586 11.6611 26.7396 11 31 11L54 11L136 11C132.041 9.3389 127.26 10 123 10L100 10L18 10z"/>
<path style="fill:#232323; stroke:none;" d="M17 11L17 103L17 124C17.0018 128.005 16.3997 131.666 20 134C16.0994 124.795 18 112.86 18 103L18 39C18 30.7293 20.2056 18.6394 17 11z"/>
<path style="fill:#5f5f5f; stroke:none;" d="M18 11L18 132C19.552 128.301 19 123.983 19 120L19 100L19 42C19 31.9442 17.6623 20.8191 20 11L18 11z"/>
<path style="fill:#909090; stroke:none;" d="M20 11C27.6394 14.2056 39.7293 12 48 12L112 12C104.361 8.79439 92.2707 11 84 11L20 11z"/>
<path style="fill:#535353; stroke:none;" d="M112.667 11.3333C112.222 11.7778 113.278 11.7222 113.333 11.6667C113.778 11.2223 112.722 11.2778 112.667 11.3333z"/>
<path style="fill:#909090; stroke:none;" d="M114 11C119.959 13.5005 128.564 12 135 12C129.041 9.49951 120.436 11 114 11z"/>
<path style="fill:#5f5f5f; stroke:none;" d="M135 11L136 12L135 11z"/>
<path style="fill:#414141; stroke:none;" d="M136 11L136 133C139.206 125.361 137 113.271 137 105L137 42C137 32.9404 139.507 19.3575 136 11z"/>
<path style="fill:#a0a0a0; stroke:none;" d="M19 12L19 101L19 123C19.0015 126.317 18.3958 129.724 21 132C18.6623 122.181 20 111.056 20 101L20 44L20 24C20 20.0172 20.552 15.6987 19 12z"/>
<path style="fill:#cecece; stroke:none;" d="M20 14C30.1171 11.5913 41.6373 13 52 13L111 13L111 30C113.191 24.7776 112 17.6322 112 12L44 12C38.1667 12 23.9809 9.44437 20 14z"/>
<path style="fill:#707070; stroke:none;" d="M112 12L112 29L114 29L114 12L112 12z"/>
<path style="fill:#cecece; stroke:none;" d="M114 12L114 36C114 38.917 114.683 43.1177 112.972 45.6821C110.371 49.5801 102.011 48 98 48L55 48C55 51.7685 53.5692 59.2924 56.0278 62.3966C58.4684 65.4781 66.5242 64 70 64L99 64C102.72 64 108.42 63.0024 111.682 65.179C115.28 67.5798 114 74.308 114 78L114 113C115.661 109.041 115 104.26 115 100L115 76C115 72.4784 116.113 66.4687 112.682 64.179C108.659 61.4947 100.627 63 96 63L56 63L56 49L99 49C102.632 49 111.435 50.5996 113.972 47.3966C115.772 45.1245 115 40.6934 115 38L115 13L135 13C129.041 10.4995 120.436 12 114 12z"/>
<path style="fill:#bfbfbf; stroke:none;" d="M135 12L135 132C138.105 124.6 136 113.007 136 105L136 43C136 33.9404 138.507 20.3575 135 12z"/>
<path style="fill:#eeeeee; stroke:none;" d="M21 13C28.6394 16.2056 40.7293 14 49 14L111 14C103.361 10.7944 91.2707 13 83 13L21 13M115 13C120.715 15.398 128.831 14 135 14C129.285 11.602 121.169 13 115 13z"/>
<path style="fill:#e0e0e0; stroke:none;" d="M20 14L20 131C23.105 123.601 21 112.007 21 104L21 44C21 35.2032 23.4066 22.1183 20 14z"/>
<path style="fill:#ffffff; stroke:none;" d="M21 14L21 130L39 130L39 108C39.0002 105.083 38.3166 100.882 40.0278 98.3179C42.6289 94.4199 50.9889 96 55 96L99 96L99 82L59 82C54.3161 82 46.3648 83.5013 42.2284 80.9722C38.5347 78.7138 39.0062 73.7284 39 70L39 42C39.0002 38.6592 38.0632 33.1997 41.3179 31.0278C45.7394 28.0773 55.8518 30 61 30L111 30L111 14L21 14M115 14L115 38C114.999 41.1687 115.702 45.8998 113.258 48.3966C110.18 51.5405 102.014 50 98 50L57 50L57 62L96 62C100.455 62 107.829 60.6173 111.772 63.0278C115.465 65.2861 114.994 70.2717 115 74L115 102C115 105.342 115.931 110.653 112.682 112.821C108.298 115.747 99.0651 114 94 114L45 114L45 130L135 130L135 14L115 14z"/>
<path style="fill:#909090; stroke:none;" d="M112 29L112 31L114 31L114 29L112 29z"/>
<path style="fill:#bfbfbf; stroke:none;" d="M40 30C46.4361 32.7007 56.049 31 63 31L112 31C105.564 28.2993 95.951 30 89 30L40 30z"/>
<path style="fill:#e0e0e0; stroke:none;" d="M39 31L39 79C40.552 75.3013 40 70.9828 40 67L40 44C40 39.7397 40.6611 34.9586 39 31z"/>
<path style="fill:#a0a0a0; stroke:none;" d="M40 31L40 67C40 71.5715 38.7729 77.2596 43 80C40.2889 73.6019 41 66.8312 41 60C41 50.5585 39.8043 40.2224 42 31L40 31z"/>
<path style="fill:#414141; stroke:none;" d="M42 31C48.1939 33.5991 57.3141 32 64 32L113 32C106.806 29.4009 97.6859 31 91 31L42 31z"/>
<path style="fill:#707070; stroke:none;" d="M113 31L113 47C114.812 42.6811 114.812 35.3189 113 31z"/>
<path style="fill:#5f5f5f; stroke:none;" d="M41 32L41 78C42.552 74.3013 42 69.9828 42 66L42 45C42 40.7397 42.6611 35.9586 41 32z"/>
<path style="fill:#232323; stroke:none;" d="M42 32L42 78C43.552 74.3013 43 69.9828 43 66L43 45C43 40.7397 43.6611 35.9586 42 32z"/>
<path style="fill:#010101; stroke:none;" d="M43 32L43 78L84 78C88.0619 78 96.256 76.4628 99.3966 79.6034C102.911 83.1174 102.263 96.2207 96.9414 97.6821C91.5774 99.1551 84.5411 98 79 98L43 98L43 112L111 112L111 66L75 66C69.4999 66 62.4231 67.1821 57.1088 65.6821C51.8053 64.1852 51.104 51.1028 54.6034 47.6034C57.744 44.4627 65.938 46 70 46L112 46L112 32L43 32z"/>
<path style="fill:#313030; stroke:none;" d="M112 32L112 46L69 46C65.3675 46 56.5646 44.4004 54.0278 47.6034C51.3277 51.0125 53 59.8329 53 64C55.0872 59.026 54 52.3619 54 47L113 47C113 42.1834 113.876 36.4714 112 32z"/>
<path style="fill:#909090; stroke:none;" d="M54 47C54 51.1071 52.3274 59.92 55.0278 63.2577C57.6951 66.5545 66.2495 65 70 65L112 65C107.785 63.2312 102.536 64 98 64L72 64C67.9381 64 59.744 65.5372 56.6034 62.3966C53.5873 59.3805 55 51.911 55 48L113 48C107.538 45.7078 99.887 47 94 47L54 47z"/>
<path style="fill:#eeeeee; stroke:none;" d="M56 49L56 63C74.788 63 95.511 60.5675 114 64C109.561 60.6373 102.379 62 97 62L57 62L57 50L114 50C108.538 47.7078 100.887 49 95 49L56 49z"/>
<path style="fill:#707070; stroke:none;" d="M54.6667 64.3333C54.2222 64.7778 55.2778 64.7222 55.3333 64.6667C55.7778 64.2222 54.7222 64.2778 54.6667 64.3333z"/>
<path style="fill:#313030; stroke:none;" d="M54 65C59.4625 67.2922 67.113 66 73 66L112 66L112 112C113.981 107.28 113 101.08 113 96L113 65L54 65z"/>
<path style="fill:#707070; stroke:none;" d="M113 65L113 113C114.661 109.041 114 104.26 114 100L114 77C114 73.0172 114.552 68.6987 113 65z"/>
<path style="fill:#111111; stroke:none;" d="M111 66L111 112C112.552 108.301 112 103.983 112 100L112 79C112 74.7396 112.661 69.9586 111 66z"/>
<path style="fill:#313030; stroke:none;" d="M42 78C47.4625 80.2922 55.113 79 61 79L100 79C94.5375 76.7078 86.887 78 81 78L42 78z"/>
<path style="fill:#eeeeee; stroke:none;" d="M40 79C42.9591 83.5643 50.0957 82 55 82L99 82C94.5313 80.1248 88.8087 81 84 81L58 81C51.7468 81 45.8537 81.4804 40 79z"/>
<path style="fill:#909090; stroke:none;" d="M43 79C48.2165 81.1889 55.3809 80 61 80L99 80C93.7835 77.8111 86.6191 79 81 79L43 79z"/>
<path style="fill:#5f5f5f; stroke:none;" d="M99 79L100 80L99 79z"/>
<path style="fill:#414141; stroke:none;" d="M100 79L100 97L42 97C46.2151 98.7687 51.4645 98 56 98L85 98C88.7313 98 96.3017 99.4234 99.3966 96.9722C102.808 94.2702 101.479 82.5236 100 79z"/>
<path style="fill:#cecece; stroke:none;" d="M42 80C47.2165 82.1889 54.3809 81 60 81L99 81C93.7835 78.8111 86.6191 80 81 80L42 80z"/>
<path style="fill:#bfbfbf; stroke:none;" d="M99 80L99 96L42 96C46.2151 97.7687 51.4645 97 56 97L84 97C87.7313 97 95.3017 98.4234 98.3966 95.9722C101.658 93.3895 100.397 83.33 99 80z"/>
<path style="fill:#e0e0e0; stroke:none;" d="M40 96C36.8885 106.527 39 120.037 39 131C43.155 121.098 35.3836 105.733 42 97C41.3502 95.7003 41.8532 96 40 96z"/>
<path style="fill:#909090; stroke:none;" d="M99 96L100 97L99 96z"/>
<path style="fill:#a0a0a0; stroke:none;" d="M40 97L40 131C44.1866 121.023 39.4605 107.666 42 97L40 97z"/>
<path style="fill:#5f5f5f; stroke:none;" d="M41 98L41 113C42.7404 108.852 42.7404 102.148 41 98z"/>
<path style="fill:#232323; stroke:none;" d="M42 98L42 112C43.6668 108.028 43.6668 101.972 42 98z"/>
<path style="fill:#414141; stroke:none;" d="M42 112C48.1939 114.599 57.3141 113 64 113L113 113C106.806 110.401 97.6859 112 91 112L42 112z"/>
<path style="fill:#909090; stroke:none;" d="M41 113C41 117.455 42.795 126.998 39.3966 130.397C35.6438 134.149 23.9731 132 19 132C22.6979 133.552 27.0178 133.002 31 133L54 133L136 133C129.322 130.198 119.216 132 112 132L59 132C54.9056 132 48.9706 133.066 45.1481 131.397C39.9265 129.117 41.2607 117.616 44 114C42.7516 113.315 42.4516 113.251 41 113z"/>
<path style="fill:#bfbfbf; stroke:none;" d="M44 113C50.1939 115.599 59.3141 114 66 114L113 114C106.806 111.401 97.6859 113 91 113L44 113z"/>
<path style="fill:#adadad; stroke:none;" d="M42 114L42 131C43.8826 126.514 43.8826 118.486 42 114z"/>
<path style="fill:#cecece; stroke:none;" d="M43 114L43 132L135 132C129.049 129.503 120.42 131 114 131L69 131L53 130.999C50.5818 130.983 47.4743 131.268 45.6034 129.397C42.0625 125.856 44.8538 118.418 43 114z"/>
<path style="fill:#eeeeee; stroke:none;" d="M44 114L44 130C45.8123 125.681 45.8123 118.319 44 114M21 130C26.2224 132.191 33.3678 131 39 131C33.7776 128.809 26.6323 130 21 130M45 130C52.6394 133.206 64.7293 131 73 131L135 131C127.361 127.794 115.271 130 107 130L45 130z"/>
<path style="fill:#cecece; stroke:none;" d="M21 131C26.4692 133.295 34.0987 132 40 132C34.5308 129.705 26.9013 131 21 131z"/>
<path style="fill:#535353; stroke:none;" d="M40 132C41.2484 132.685 41.5484 132.749 43 133C41.7517 132.315 41.4516 132.251 40 132z"/>
<path style="fill:#313030; stroke:none;" d="M20 133C23.6987 134.552 28.0172 134 32 134L55 134L136 134C132.301 132.448 127.983 133 124 133L101 133L20 133z"/>
</svg>
