<svg xmlns="http://www.w3.org/2000/svg" xmlns:xlink="http://www.w3.org/1999/xlink" viewBox="0,0,256,256" width="50px" height="50px" fill-rule="nonzero"><g fill="#2a7ae4" fill-rule="nonzero" stroke="none" stroke-width="1" stroke-linecap="butt" stroke-linejoin="miter" stroke-miterlimit="10" stroke-dasharray="" stroke-dashoffset="0" font-family="none" font-weight="none" font-size="none" text-anchor="none" style="mix-blend-mode: normal"><g transform="scale(5.12,5.12)"><path d="M25,2c-0.03325,-0.00035 -0.06649,0.00095 -0.09961,0.00391c-3.61516,0.01714 -6.28017,0.93318 -8.04102,1.87305c-1.42009,0.75798 -1.86378,1.28639 -2.1582,1.58203c-0.54103,-0.21452 -1.07431,-0.45898 -1.70117,-0.45898c-2.74952,0 -5,2.25048 -5,5c0,2.02777 1.25274,3.71839 3,4.49805v9.38086l-2.56055,2.56055c-0.586,0.586 -0.586,1.53509 0,2.12109c0.293,0.293 0.67655,0.43945 1.06055,0.43945c0.384,0 0.76755,-0.14645 1.06055,-0.43945l0.17383,-0.17383c-0.0707,0.45412 -0.1363,0.90485 -0.21875,1.37891c-0.25251,1.45183 -0.51562,3.17882 -0.51562,6.23438c0,2.83752 1.34837,5.78051 3.83594,8.04297l-1.39649,1.39648c-0.586,0.586 -0.586,1.53509 0,2.12109c0.293,0.293 0.67655,0.43945 1.06055,0.43945c0.384,0 0.76855,-0.14645 1.06055,-0.43945l1.73828,-1.73828c2.31166,1.32493 5.20403,2.15947 8.61328,2.17383c0.00585,0.0007 0.01171,0.00135 0.01758,0.00195c0.02401,0.00008 0.04626,0.00195 0.07031,0.00195c0.0339,0.00042 0.0678,-0.00088 0.10156,-0.00391c3.40321,-0.01657 6.29105,-0.8507 8.59961,-2.17383l1.73828,1.73828c0.292,0.293 0.67655,0.43945 1.06055,0.43945c0.384,0 0.76755,-0.14645 1.06055,-0.43945c0.586,-0.586 0.586,-1.53509 0,-2.12109l-1.39844,-1.39844c2.48661,-2.26228 3.83789,-5.20411 3.83789,-8.04102c0,-3.05556 -0.26311,-4.78254 -0.51562,-6.23437c-0.08245,-0.47406 -0.14805,-0.92478 -0.21875,-1.37891l0.17383,0.17383c0.293,0.293 0.67655,0.43945 1.06055,0.43945c0.384,0 0.76755,-0.14645 1.06055,-0.43945c0.586,-0.586 0.586,-1.53509 0,-2.12109l-2.56055,-2.56055v-9.38086c1.74726,-0.77966 3,-2.47028 3,-4.49805c0,-2.74952 -2.25048,-5 -5,-5c-0.62686,0 -1.16014,0.24446 -1.70117,0.45898c-0.29442,-0.29565 -0.73812,-0.82405 -2.1582,-1.58203c-1.76574,-0.94248 -4.43978,-1.86285 -8.07031,-1.875c-0.02341,-0.00148 -0.04686,-0.00213 -0.07031,-0.00195zM25,4c3.33248,0 5.68121,0.83037 7.19922,1.64063c1.51801,0.81025 2.14063,1.53711 2.14063,1.53711c0.3132,0.35644 0.83375,0.44375 1.24609,0.20898c0.43222,-0.24633 0.902,-0.38672 1.41406,-0.38672c1.66848,0 3,1.33152 3,3c0,1.40514 -0.95695,2.56272 -2.25,2.89648c-0.44098,0.1139 -0.7493,0.51135 -0.75,0.9668v11.13672c0,2.32456 0.26814,3.68645 0.51563,5.10938c0.24749,1.42292 0.48438,2.94618 0.48438,5.89063c0,4.47234 -4.43533,10 -13,10c-8.56467,0 -13,-5.52766 -13,-10c0,-2.94444 0.23689,-4.4677 0.48438,-5.89062c0.24749,-1.42292 0.51563,-2.78482 0.51563,-5.10937v-11.13672c-0.0007,-0.45545 -0.30902,-0.8529 -0.75,-0.9668c-1.29305,-0.33376 -2.25,-1.49134 -2.25,-2.89648c0,-1.66848 1.33152,-3 3,-3c0.51207,0 0.98184,0.14039 1.41406,0.38672c0.41235,0.23476 0.9329,0.14746 1.24609,-0.20898c0,0 0.62261,-0.72686 2.14063,-1.53711c1.51801,-0.81025 3.86674,-1.64062 7.19922,-1.64062zM19.5,8c-2.47344,0 -4.5,2.02656 -4.5,4.5c0,2.47344 2.02656,4.5 4.5,4.5c2.47344,0 4.5,-2.02656 4.5,-4.5c0,-2.47344 -2.02656,-4.5 -4.5,-4.5zM30.49805,8.00195c-2.47288,0 -4.49805,2.02516 -4.49805,4.49805c0,2.47288 2.02516,4.49805 4.49805,4.49805c2.47288,0 4.5,-2.02516 4.5,-4.49805c0,-2.47288 -2.02712,-4.49805 -4.5,-4.49805zM13,9c-0.552,0 -1,0.448 -1,1c0,0.552 0.448,1 1,1c0.068,0 0.12741,-0.02606 0.19141,-0.03906c0.134,-0.547 0.33075,-1.07069 0.59375,-1.55469c-0.183,-0.241 -0.45916,-0.40625 -0.78516,-0.40625zM37,9c-0.326,0 -0.60216,0.16525 -0.78516,0.40625c0.263,0.484 0.45975,1.00769 0.59375,1.55469c0.064,0.013 0.12341,0.03906 0.19141,0.03906c0.552,0 1,-0.448 1,-1c0,-0.552 -0.448,-1 -1,-1zM19.5,10c1.39256,0 2.5,1.10744 2.5,2.5c0,1.39256 -1.10744,2.5 -2.5,2.5c-0.82442,0 -1.54216,-0.39434 -1.99609,-1c0.8269,-0.00215 1.4961,-0.6731 1.49609,-1.5c0,-0.8269 -0.66919,-1.49785 -1.49609,-1.5c0.45393,-0.60566 1.17167,-1 1.99609,-1zM30.49805,10.00195c1.392,0 2.5,1.10604 2.5,2.49805c0,1.392 -1.108,2.49805 -2.5,2.49805c-0.82397,0 -1.54065,-0.39306 -1.99414,-0.99805c0.8269,-0.00215 1.4961,-0.6731 1.49609,-1.5c0,-0.8269 -0.66919,-1.49785 -1.49609,-1.5c0.45349,-0.60499 1.17017,-0.99805 1.99414,-0.99805zM25,16c-1.41696,0.00044 -2.64024,0.66176 -2.93359,1.58594c-0.30172,0.18617 -0.58765,0.39625 -0.83594,0.64453c-0.71964,0.71964 -1.23047,1.6862 -1.23047,2.76953c0,0.25 0.05764,1.25331 0.8418,1.93945c0.49158,0.43014 1.19995,0.72095 2.1582,0.89063v1.16992c-0.0051,0.36064 0.18438,0.69608 0.49587,0.87789c0.3115,0.18181 0.69676,0.18181 1.00825,0c0.3115,-0.18181 0.50097,-0.51725 0.49587,-0.87789c-0.0051,0.36064 0.18438,0.69608 0.49587,0.87789c0.3115,0.18181 0.69676,0.18181 1.00825,0c0.3115,-0.18181 0.50097,-0.51725 0.49587,-0.87789v-1.16992c0.95826,-0.16968 1.66662,-0.46049 2.1582,-0.89062c0.78416,-0.68614 0.8418,-1.68945 0.8418,-1.93945c0,-1.08333 -0.51083,-2.0499 -1.23047,-2.76953c-0.24868,-0.24868 -0.53561,-0.45818 -0.83789,-0.64453c-0.2932,-0.9237 -1.51542,-1.58488 -2.93164,-1.58594zM22.9043,19.42773c0.55959,0.36596 1.31182,0.57137 2.0957,0.57227c0.78415,-0.00003 1.53711,-0.20475 2.09766,-0.57031c0.0886,0.06677 0.17739,0.13442 0.25781,0.21484c0.40536,0.40536 0.64453,0.9388 0.64453,1.35547c0,0.25 0.05764,0.24669 -0.1582,0.43555c-0.21584,0.18886 -0.9668,0.56445 -2.8418,0.56445c-1.875,0 -2.62596,-0.37559 -2.8418,-0.56445c-0.21584,-0.18886 -0.1582,-0.18555 -0.1582,-0.43555c0,-0.41667 0.23917,-0.9501 0.64453,-1.35547c0.08108,-0.08108 0.17039,-0.1496 0.25977,-0.2168z"></path></g></g></svg>