<svg xmlns="http://www.w3.org/2000/svg" xmlns:xlink="http://www.w3.org/1999/xlink" viewBox="0,0,256,256" width="50px" height="50px" fill-rule="nonzero"><g fill="#ffffff" fill-rule="nonzero" stroke="none" stroke-width="1" stroke-linecap="butt" stroke-linejoin="miter" stroke-miterlimit="10" stroke-dasharray="" stroke-dashoffset="0" font-family="none" font-weight="none" font-size="none" text-anchor="none" style="mix-blend-mode: normal"><g transform="scale(5.12,5.12)"><path d="M5.28125,2c-0.51562,0.09375 -0.87109,0.57422 -0.8125,1.09375l3.53125,39.4375c0.04688,0.40234 0.33203,0.73438 0.71875,0.84375l16,4.59375c0.18359,0.05469 0.37891,0.05469 0.5625,0l16,-4.59375c0.38672,-0.10937 0.67188,-0.44141 0.71875,-0.84375l3.53125,-39.4375c0.02734,-0.28125 -0.06641,-0.55859 -0.25781,-0.76953c-0.19141,-0.20703 -0.46094,-0.32422 -0.74219,-0.32422h-39.0625c-0.03125,0 -0.0625,0 -0.09375,0c-0.03125,0 -0.0625,0 -0.09375,0zM6.5625,4h36.875l-3.34375,37.65625l-15.09375,4.28125l-15.09375,-4.28125zM12.53125,10.0625c-0.51562,0.09375 -0.87109,0.57422 -0.8125,1.09375l1.34375,14.78125c0.03125,0.51563 0.45313,0.92188 0.96875,0.9375h15.96875l-0.4375,4.59375l-4.53125,0.96875l-4.59375,-0.96875l-0.15625,-1.625c-0.03125,-0.52734 -0.47266,-0.9375 -1,-0.9375h-4.875c-0.28125,0 -0.55078,0.11719 -0.74219,0.32422c-0.19141,0.21094 -0.28516,0.48828 -0.25781,0.76953l0.5625,6.125c0.03125,0.40234 0.30078,0.75 0.6875,0.875l9.9375,3.03125l0.125,0.03125c0.18359,0.05469 0.37891,0.05469 0.5625,0l10.0625,-3.0625c0.39844,-0.11328 0.68359,-0.46094 0.71875,-0.875l1.3125,-15.03125c0.02734,-0.27734 -0.0625,-0.55078 -0.24609,-0.75781c-0.18359,-0.20703 -0.44531,-0.32812 -0.72266,-0.33594h-17.03125l-0.25,-3.09375h17.71875c0.51953,0.00391 0.95313,-0.39062 1,-0.90625l0.4375,-4.84375c0.02734,-0.28125 -0.06641,-0.55859 -0.25781,-0.76953c-0.19141,-0.20703 -0.46094,-0.32422 -0.74219,-0.32422h-24.5625c-0.0625,-0.00781 -0.125,-0.00781 -0.1875,0zM13.8125,12.0625h22.375l-0.25,2.84375h-17.90625c-0.28125,0 -0.55078,0.11719 -0.74219,0.32422c-0.19141,0.21094 -0.28516,0.48828 -0.25781,0.76953l0.46875,5.09375c0.04688,0.50391 0.46484,0.89453 0.96875,0.90625h16.84375l-1.1875,13.28125l-9.125,2.75l-9.125,-2.75l-0.375,-4.375h2.875l0.125,1.46875c0.03125,0.44141 0.34766,0.80859 0.78125,0.90625l5.5625,1.15625c0.13281,0.02734 0.27344,0.02734 0.40625,0l5.46875,-1.15625c0.43359,-0.09766 0.75,-0.46484 0.78125,-0.90625l0.59375,-6.4375c0.01563,-0.27734 -0.08203,-0.54687 -0.26953,-0.74609c-0.19141,-0.20312 -0.45312,-0.31641 -0.73047,-0.31641h-16.15625z"></path></g></g></svg>